<?xml version="1.0" encoding="UTF-8"?>
<svg xmlns="http://www.w3.org/2000/svg"
     height="700"
     width="650"
     viewBox="-50 -600 600 700">
   <line x1="50"
         x2="50"
         y1="15"
         y2="-500"
         stroke="black"
         stroke-width="1"/>
   <circle cx="50" cy="-292" r="6721" fill="red"/>
   <circle cx="50" cy="-155" r="5915" fill="blue"/>
   <line x1="150"
         x2="150"
         y1="15"
         y2="-500"
         stroke="black"
         stroke-width="1"/>
   <circle cx="150" cy="-336" r="7332" fill="red"/>
   <circle cx="150" cy="-140" r="4888" fill="blue"/>
   <circle cx="150" cy="-0" r="390" fill="green"/>
   <line x1="250"
         x2="250"
         y1="15"
         y2="-500"
         stroke="black"
         stroke-width="1"/>
   <circle cx="250" cy="-321" r="6708" fill="red"/>
   <circle cx="250" cy="-162" r="5590" fill="blue"/>
   <circle cx="250" cy="-0" r="364" fill="green"/>
   <line x1="350"
         x2="350"
         y1="15"
         y2="-500"
         stroke="black"
         stroke-width="1"/>
   <circle cx="350" cy="-8" r="3016" fill="red"/>
   <circle cx="350" cy="-435" r="5434" fill="blue"/>
   <circle cx="350" cy="-88" r="3562" fill="green"/>
   <circle cx="350" cy="-0" r="780" fill="green"/>
   <line x1="0"
         x2="400"
         y1="-0"
         y2="-0"
         stroke="black"
         stroke-width="1"/>
   <line x1="0"
         x2="400"
         y1="-100"
         y2="-100"
         stroke="black"
         stroke-width="1"/>
   <line x1="0"
         x2="400"
         y1="-200"
         y2="-200"
         stroke="black"
         stroke-width="1"/>
   <line x1="0"
         x2="400"
         y1="-300"
         y2="-300"
         stroke="black"
         stroke-width="1"/>
   <line x1="0"
         x2="400"
         y1="-400"
         y2="-400"
         stroke="black"
         stroke-width="1"/>
   <line x1="0"
         x2="400"
         y1="-500"
         y2="-500"
         stroke="black"
         stroke-width="1"/>
</svg>
